<svg xmlns="http://www.w3.org/2000/svg" viewBox="0 0 117.07 117.03"><defs><style>.cls-1{fill:#6a99aa;}.cls-2{fill:#9aca79;}</style></defs><g id="Layer_3" data-name="Layer 3"><path class="cls-1" d="M81.94,61.36c-1.66-13-4.71-21.48-8.55-26.6C78.16,41.65,78.32,51.69,70.5,59a56.43,56.43,0,0,0,1.68,8,54.86,54.86,0,0,1-7.48-3.9c-5.28,2.82-12.48,4.79-22,5.28l-.56,0a28.7,28.7,0,0,1,18.49,5.32A46.63,46.63,0,0,0,98.36,78C89.88,77.74,83,69.67,81.94,61.36Z"/><path class="cls-2" d="M30.54,47.29a46.16,46.16,0,0,0-4.4,37.32c.34-8.4,8.31-15.9,16.61-16.2C107.75,65,65.7-7.46,30.54,47.29Zm19,8.42a50.38,50.38,0,0,0-11.64.79,66.67,66.67,0,0,1,6.24-9.14C60.22,26,76.27,56.3,49.54,55.71Z"/></g></svg>